<mxfile host="Electron" modified="2023-10-19T07:06:40.508Z" agent="Mozilla/5.0 (Macintosh; Intel Mac OS X 10_15_7) AppleWebKit/537.36 (KHTML, like Gecko) draw.io/22.0.2 Chrome/114.0.5735.289 Electron/25.8.4 Safari/537.36" etag="6aQTfr2lTPx_J4ZH-wDN" version="22.0.2" type="device">
  <diagram name="Page-1" id="ZRe_wIOORr0k_d4isBBX">
    <mxGraphModel dx="3193" dy="2211" grid="1" gridSize="10" guides="1" tooltips="1" connect="1" arrows="1" fold="1" page="1" pageScale="1" pageWidth="1169" pageHeight="827" math="0" shadow="0">
      <root>
        <mxCell id="0" />
        <mxCell id="1" parent="0" />
        <mxCell id="I-3xDNqU13IutiKupr62-49" value="" style="rounded=1;whiteSpace=wrap;html=1;fontSize=16;fillColor=none;dashed=1;dashPattern=12 12;" parent="1" vertex="1">
          <mxGeometry x="-1025.5" y="-352.5" width="850" height="330" as="geometry" />
        </mxCell>
        <UserObject label="&lt;i&gt;&lt;font color=&quot;#000000&quot;&gt;Signature 456&lt;/font&gt;&lt;/i&gt;" id="I-3xDNqU13IutiKupr62-4">
          <mxCell style="ellipse;whiteSpace=wrap;html=1;fontSize=16;fillColor=none;strokeWidth=2;strokeColor=#336600;" parent="1" vertex="1">
            <mxGeometry x="-665" y="-248.61" width="147" height="39.22" as="geometry" />
          </mxCell>
        </UserObject>
        <mxCell id="I-3xDNqU13IutiKupr62-50" value="" style="group" parent="1" vertex="1" connectable="0">
          <mxGeometry x="-974" y="-309" width="752" height="243" as="geometry" />
        </mxCell>
        <UserObject label="&lt;i&gt;&lt;font color=&quot;#000000&quot;&gt;Example University Public Key 7&amp;nbsp;&lt;/font&gt;&lt;/i&gt;" id="I-3xDNqU13IutiKupr62-16">
          <mxCell style="ellipse;whiteSpace=wrap;html=1;fontSize=16;fillColor=none;strokeWidth=2;strokeColor=#336600;" parent="I-3xDNqU13IutiKupr62-50" vertex="1">
            <mxGeometry x="302.5" y="183" width="160" height="60" as="geometry" />
          </mxCell>
        </UserObject>
        <UserObject label="&lt;i&gt;&lt;font color=&quot;#000000&quot;&gt;2022-06-18T21:19.10Z&lt;/font&gt;&lt;/i&gt;" id="I-3xDNqU13IutiKupr62-14">
          <mxCell style="rounded=0;whiteSpace=wrap;html=1;fontSize=16;fillColor=none;strokeWidth=2;" parent="I-3xDNqU13IutiKupr62-50" vertex="1">
            <mxGeometry y="120" width="190" height="40" as="geometry" />
          </mxCell>
        </UserObject>
        <UserObject label="&lt;i&gt;&lt;font color=&quot;#000000&quot;&gt;Data Integrity Proof&lt;/font&gt;&lt;/i&gt;" id="I-3xDNqU13IutiKupr62-15">
          <mxCell style="ellipse;whiteSpace=wrap;html=1;fontSize=16;fillColor=none;strokeWidth=2;strokeColor=#336600;shadow=0;perimeterSpacing=3;" parent="I-3xDNqU13IutiKupr62-50" vertex="1">
            <mxGeometry x="5" width="180" height="50" as="geometry" />
          </mxCell>
        </UserObject>
        <UserObject label="&lt;i&gt;&lt;font color=&quot;#000000&quot;&gt;34dj239dsj328&lt;/font&gt;&lt;/i&gt;" id="I-3xDNqU13IutiKupr62-12">
          <mxCell style="rounded=0;whiteSpace=wrap;html=1;fontSize=16;fillColor=none;strokeWidth=2;" parent="I-3xDNqU13IutiKupr62-50" vertex="1">
            <mxGeometry x="602" y="4" width="140" height="40" as="geometry" />
          </mxCell>
        </UserObject>
        <UserObject label="&lt;i&gt;&lt;font color=&quot;#000000&quot;&gt;zBavE110â€¦3JT2pq&lt;/font&gt;&lt;/i&gt;" id="I-3xDNqU13IutiKupr62-13">
          <mxCell style="rounded=0;whiteSpace=wrap;html=1;fontSize=16;fillColor=none;strokeWidth=2;" parent="I-3xDNqU13IutiKupr62-50" vertex="1">
            <mxGeometry x="592" y="116" width="160" height="40" as="geometry" />
          </mxCell>
        </UserObject>
        <mxCell id="I-3xDNqU13IutiKupr62-19" value="" style="endArrow=classic;html=1;rounded=0;fontSize=12;startSize=8;endSize=8;curved=1;exitX=0;exitY=0;exitDx=0;exitDy=0;entryX=1;entryY=0.5;entryDx=0;entryDy=0;strokeWidth=2;fontStyle=2" parent="I-3xDNqU13IutiKupr62-50" source="I-3xDNqU13IutiKupr62-4" target="I-3xDNqU13IutiKupr62-15" edge="1">
          <mxGeometry width="50" height="50" relative="1" as="geometry">
            <mxPoint x="120" y="-156" as="sourcePoint" />
            <mxPoint x="170" y="-206" as="targetPoint" />
            <Array as="points">
              <mxPoint x="290" y="34" />
            </Array>
          </mxGeometry>
        </mxCell>
        <mxCell id="I-3xDNqU13IutiKupr62-20" value="&amp;nbsp;type&amp;nbsp;" style="edgeLabel;html=1;align=center;verticalAlign=middle;resizable=0;points=[];fontSize=16;" parent="I-3xDNqU13IutiKupr62-19" vertex="1" connectable="0">
          <mxGeometry x="0.1345" y="-2" relative="1" as="geometry">
            <mxPoint as="offset" />
          </mxGeometry>
        </mxCell>
        <mxCell id="I-3xDNqU13IutiKupr62-21" value="" style="endArrow=classic;html=1;rounded=0;fontSize=12;startSize=8;endSize=8;curved=1;exitX=0;exitY=1;exitDx=0;exitDy=0;entryX=1;entryY=0.5;entryDx=0;entryDy=0;strokeWidth=2;fontStyle=2" parent="I-3xDNqU13IutiKupr62-50" source="I-3xDNqU13IutiKupr62-4" target="I-3xDNqU13IutiKupr62-14" edge="1">
          <mxGeometry width="50" height="50" relative="1" as="geometry">
            <mxPoint x="348" y="73" as="sourcePoint" />
            <mxPoint x="218" y="35" as="targetPoint" />
            <Array as="points">
              <mxPoint x="280" y="134" />
            </Array>
          </mxGeometry>
        </mxCell>
        <mxCell id="I-3xDNqU13IutiKupr62-22" value="&amp;nbsp;created" style="edgeLabel;html=1;align=center;verticalAlign=middle;resizable=0;points=[];fontSize=16;" parent="I-3xDNqU13IutiKupr62-21" vertex="1" connectable="0">
          <mxGeometry x="0.1345" y="-2" relative="1" as="geometry">
            <mxPoint as="offset" />
          </mxGeometry>
        </mxCell>
        <mxCell id="I-3xDNqU13IutiKupr62-23" value="" style="endArrow=classic;html=1;rounded=0;fontSize=12;startSize=8;endSize=8;curved=1;exitX=1;exitY=0;exitDx=0;exitDy=0;entryX=0;entryY=0.5;entryDx=0;entryDy=0;strokeWidth=2;fontStyle=2" parent="I-3xDNqU13IutiKupr62-50" source="I-3xDNqU13IutiKupr62-4" target="I-3xDNqU13IutiKupr62-12" edge="1">
          <mxGeometry width="50" height="50" relative="1" as="geometry">
            <mxPoint x="358" y="83" as="sourcePoint" />
            <mxPoint x="570" y="24" as="targetPoint" />
            <Array as="points">
              <mxPoint x="490" y="34" />
            </Array>
          </mxGeometry>
        </mxCell>
        <mxCell id="I-3xDNqU13IutiKupr62-24" value="nonce&amp;nbsp;" style="edgeLabel;html=1;align=center;verticalAlign=middle;resizable=0;points=[];fontSize=16;" parent="I-3xDNqU13IutiKupr62-23" vertex="1" connectable="0">
          <mxGeometry x="0.1345" y="-2" relative="1" as="geometry">
            <mxPoint as="offset" />
          </mxGeometry>
        </mxCell>
        <mxCell id="I-3xDNqU13IutiKupr62-25" value="" style="endArrow=classic;html=1;rounded=0;fontSize=12;startSize=8;endSize=8;curved=1;exitX=1;exitY=1;exitDx=0;exitDy=0;entryX=0;entryY=0.5;entryDx=0;entryDy=0;strokeWidth=2;fontStyle=2" parent="I-3xDNqU13IutiKupr62-50" source="I-3xDNqU13IutiKupr62-4" target="I-3xDNqU13IutiKupr62-13" edge="1">
          <mxGeometry width="50" height="50" relative="1" as="geometry">
            <mxPoint x="368" y="93" as="sourcePoint" />
            <mxPoint x="238" y="55" as="targetPoint" />
            <Array as="points">
              <mxPoint x="490" y="134" />
            </Array>
          </mxGeometry>
        </mxCell>
        <mxCell id="I-3xDNqU13IutiKupr62-26" value="proofValue" style="edgeLabel;html=1;align=center;verticalAlign=middle;resizable=0;points=[];fontSize=16;" parent="I-3xDNqU13IutiKupr62-25" vertex="1" connectable="0">
          <mxGeometry x="0.1345" y="-2" relative="1" as="geometry">
            <mxPoint as="offset" />
          </mxGeometry>
        </mxCell>
        <mxCell id="I-3xDNqU13IutiKupr62-27" value="" style="endArrow=classic;html=1;rounded=0;fontSize=12;startSize=8;endSize=8;curved=1;entryX=0.5;entryY=0;entryDx=0;entryDy=0;exitX=0.5;exitY=1;exitDx=0;exitDy=0;strokeWidth=2;fontStyle=2" parent="I-3xDNqU13IutiKupr62-50" source="I-3xDNqU13IutiKupr62-4" target="I-3xDNqU13IutiKupr62-16" edge="1">
          <mxGeometry width="50" height="50" relative="1" as="geometry">
            <mxPoint x="370" y="134" as="sourcePoint" />
            <mxPoint x="248" y="65" as="targetPoint" />
          </mxGeometry>
        </mxCell>
        <mxCell id="I-3xDNqU13IutiKupr62-28" value="&amp;nbsp;type&amp;nbsp;" style="edgeLabel;html=1;align=center;verticalAlign=middle;resizable=0;points=[];fontSize=16;" parent="I-3xDNqU13IutiKupr62-27" vertex="1" connectable="0">
          <mxGeometry x="0.1345" y="-2" relative="1" as="geometry">
            <mxPoint as="offset" />
          </mxGeometry>
        </mxCell>
        <mxCell id="I-3xDNqU13IutiKupr62-29" value="verificationMethod" style="edgeLabel;html=1;align=center;verticalAlign=middle;resizable=0;points=[];fontSize=16;" parent="I-3xDNqU13IutiKupr62-27" vertex="1" connectable="0">
          <mxGeometry x="0.1126" y="4" relative="1" as="geometry">
            <mxPoint as="offset" />
          </mxGeometry>
        </mxCell>
        <mxCell id="I-3xDNqU13IutiKupr62-51" value="&lt;i&gt;&lt;font style=&quot;font-size: 13px;&quot;&gt;Verifiable Credential Proof Graph&lt;/font&gt;&lt;/i&gt;" style="text;html=1;strokeColor=none;fillColor=none;align=center;verticalAlign=middle;whiteSpace=wrap;rounded=0;fontSize=16;" parent="1" vertex="1">
          <mxGeometry x="-484" y="-352.5" width="350" height="30" as="geometry" />
        </mxCell>
        <mxCell id="I-3xDNqU13IutiKupr62-62" value="" style="endArrow=classic;html=1;rounded=0;fontSize=12;startSize=8;endSize=8;curved=1;strokeWidth=2;exitX=0.5;exitY=1;exitDx=0;exitDy=0;entryX=0.511;entryY=-0.005;entryDx=0;entryDy=0;entryPerimeter=0;" parent="1" source="I-3xDNqU13IutiKupr62-1" target="I-3xDNqU13IutiKupr62-49" edge="1">
          <mxGeometry width="50" height="50" relative="1" as="geometry">
            <mxPoint x="-594" y="-349" as="sourcePoint" />
            <mxPoint x="-544" y="-399" as="targetPoint" />
          </mxGeometry>
        </mxCell>
        <mxCell id="I-3xDNqU13IutiKupr62-63" value="proof" style="edgeLabel;html=1;align=center;verticalAlign=middle;resizable=0;points=[];fontSize=16;" parent="I-3xDNqU13IutiKupr62-62" vertex="1" connectable="0">
          <mxGeometry x="-0.1786" y="-1" relative="1" as="geometry">
            <mxPoint as="offset" />
          </mxGeometry>
        </mxCell>
        <mxCell id="gt3aoFQ5WGDo4pMsPphc-1" value="" style="group" vertex="1" connectable="0" parent="1">
          <mxGeometry x="-1095.5" y="-799.39" width="990" height="380" as="geometry" />
        </mxCell>
        <mxCell id="I-3xDNqU13IutiKupr62-58" value="" style="ellipse;whiteSpace=wrap;html=1;fontSize=16;fillColor=none;dashed=1;dashPattern=1 1;" parent="gt3aoFQ5WGDo4pMsPphc-1" vertex="1">
          <mxGeometry width="990" height="380" as="geometry" />
        </mxCell>
        <mxCell id="I-3xDNqU13IutiKupr62-59" value="&lt;i style=&quot;border-color: var(--border-color); color: rgb(0, 0, 0); font-family: Helvetica; font-size: 16px; font-variant-ligatures: normal; font-variant-caps: normal; font-weight: 400; letter-spacing: normal; orphans: 2; text-indent: 0px; text-transform: none; widows: 2; word-spacing: 0px; -webkit-text-stroke-width: 0px; background-color: rgb(251, 251, 251); text-decoration-thickness: initial; text-decoration-style: initial; text-decoration-color: initial;&quot;&gt;&lt;font style=&quot;border-color: var(--border-color); font-size: 13px;&quot;&gt;Verifiable Credential&lt;/font&gt;&lt;/i&gt;" style="text;whiteSpace=wrap;html=1;fontSize=16;align=center;rotation=-15;" parent="gt3aoFQ5WGDo4pMsPphc-1" vertex="1">
          <mxGeometry x="121.5" y="34.389999999999986" width="170" height="30" as="geometry" />
        </mxCell>
        <UserObject label="&lt;i&gt;&lt;font color=&quot;#000000&quot;&gt;Example University&lt;/font&gt;&lt;/i&gt;" id="I-3xDNqU13IutiKupr62-2">
          <mxCell style="ellipse;whiteSpace=wrap;html=1;fontSize=16;fillColor=none;strokeWidth=2;strokeColor=#336600;" parent="gt3aoFQ5WGDo4pMsPphc-1" vertex="1">
            <mxGeometry x="595.5" y="300.39" width="160" height="39.22" as="geometry" />
          </mxCell>
        </UserObject>
        <UserObject label="&lt;i&gt;&lt;font color=&quot;#000000&quot;&gt;2010-01-01T10:37.24Z&lt;/font&gt;&lt;/i&gt;" id="I-3xDNqU13IutiKupr62-8">
          <mxCell style="rounded=0;whiteSpace=wrap;html=1;fontSize=16;fillColor=none;strokeWidth=2;" parent="gt3aoFQ5WGDo4pMsPphc-1" vertex="1">
            <mxGeometry x="71.5" y="190.39" width="190" height="40" as="geometry" />
          </mxCell>
        </UserObject>
        <UserObject label="&lt;i&gt;&lt;font color=&quot;#000000&quot;&gt;Example Alumni Credential&lt;/font&gt;&lt;/i&gt;" id="I-3xDNqU13IutiKupr62-9">
          <mxCell style="ellipse;whiteSpace=wrap;html=1;fontSize=16;fillColor=none;strokeWidth=2;strokeColor=#336600;" parent="gt3aoFQ5WGDo4pMsPphc-1" vertex="1">
            <mxGeometry x="416" y="40.389999999999986" width="180" height="50" as="geometry" />
          </mxCell>
        </UserObject>
        <UserObject label="&lt;i&gt;&lt;font color=&quot;#000000&quot;&gt;Credential123&lt;/font&gt;&lt;/i&gt;" id="I-3xDNqU13IutiKupr62-1">
          <mxCell style="ellipse;whiteSpace=wrap;html=1;fontSize=16;fillColor=none;strokeWidth=2;strokeColor=#336600;" parent="gt3aoFQ5WGDo4pMsPphc-1" vertex="1">
            <mxGeometry x="432.5" y="190.77999999999997" width="147" height="39.22" as="geometry" />
          </mxCell>
        </UserObject>
        <UserObject label="&lt;i&gt;&lt;font color=&quot;#000000&quot;&gt;Pat&lt;/font&gt;&lt;/i&gt;" id="I-3xDNqU13IutiKupr62-3">
          <mxCell style="ellipse;whiteSpace=wrap;html=1;fontSize=16;fillColor=none;strokeWidth=2;strokeColor=#336600;" parent="gt3aoFQ5WGDo4pMsPphc-1" vertex="1">
            <mxGeometry x="771.5" y="190.77999999999997" width="147" height="39.22" as="geometry" />
          </mxCell>
        </UserObject>
        <mxCell id="I-3xDNqU13IutiKupr62-10" style="edgeStyle=none;curved=1;rounded=0;orthogonalLoop=1;jettySize=auto;html=1;exitX=0;exitY=0.5;exitDx=0;exitDy=0;fontSize=12;startSize=8;endSize=8;" parent="gt3aoFQ5WGDo4pMsPphc-1" source="I-3xDNqU13IutiKupr62-8" target="I-3xDNqU13IutiKupr62-8" edge="1">
          <mxGeometry relative="1" as="geometry" />
        </mxCell>
        <mxCell id="I-3xDNqU13IutiKupr62-11" style="edgeStyle=none;curved=1;rounded=0;orthogonalLoop=1;jettySize=auto;html=1;exitX=1;exitY=0.5;exitDx=0;exitDy=0;fontSize=12;startSize=8;endSize=8;" parent="gt3aoFQ5WGDo4pMsPphc-1" source="I-3xDNqU13IutiKupr62-8" target="I-3xDNqU13IutiKupr62-8" edge="1">
          <mxGeometry relative="1" as="geometry" />
        </mxCell>
        <mxCell id="I-3xDNqU13IutiKupr62-36" value="" style="endArrow=classic;html=1;rounded=0;fontSize=12;startSize=8;endSize=8;curved=1;exitX=0.5;exitY=0;exitDx=0;exitDy=0;entryX=0.5;entryY=1;entryDx=0;entryDy=0;strokeWidth=2;" parent="gt3aoFQ5WGDo4pMsPphc-1" source="I-3xDNqU13IutiKupr62-1" target="I-3xDNqU13IutiKupr62-9" edge="1">
          <mxGeometry width="50" height="50" relative="1" as="geometry">
            <mxPoint x="-568.5" y="-289.61" as="sourcePoint" />
            <mxPoint x="-518.5" y="-339.61" as="targetPoint" />
          </mxGeometry>
        </mxCell>
        <mxCell id="I-3xDNqU13IutiKupr62-37" value="type" style="edgeLabel;html=1;align=center;verticalAlign=middle;resizable=0;points=[];fontSize=16;" parent="I-3xDNqU13IutiKupr62-36" vertex="1" connectable="0">
          <mxGeometry x="-0.016" relative="1" as="geometry">
            <mxPoint as="offset" />
          </mxGeometry>
        </mxCell>
        <mxCell id="I-3xDNqU13IutiKupr62-38" value="" style="endArrow=classic;html=1;rounded=0;fontSize=12;startSize=8;endSize=8;curved=1;exitX=0;exitY=0.5;exitDx=0;exitDy=0;entryX=1;entryY=0.5;entryDx=0;entryDy=0;strokeWidth=2;" parent="gt3aoFQ5WGDo4pMsPphc-1" source="I-3xDNqU13IutiKupr62-1" target="I-3xDNqU13IutiKupr62-8" edge="1">
          <mxGeometry width="50" height="50" relative="1" as="geometry">
            <mxPoint x="-698.5" y="-549.2200000000001" as="sourcePoint" />
            <mxPoint x="-698.5" y="-649.2200000000001" as="targetPoint" />
          </mxGeometry>
        </mxCell>
        <mxCell id="I-3xDNqU13IutiKupr62-39" value="type" style="edgeLabel;html=1;align=center;verticalAlign=middle;resizable=0;points=[];fontSize=16;" parent="I-3xDNqU13IutiKupr62-38" vertex="1" connectable="0">
          <mxGeometry x="-0.016" relative="1" as="geometry">
            <mxPoint as="offset" />
          </mxGeometry>
        </mxCell>
        <mxCell id="I-3xDNqU13IutiKupr62-40" value="validFrom&amp;nbsp;" style="edgeLabel;html=1;align=center;verticalAlign=middle;resizable=0;points=[];fontSize=16;" parent="I-3xDNqU13IutiKupr62-38" vertex="1" connectable="0">
          <mxGeometry x="-0.0409" y="-1" relative="1" as="geometry">
            <mxPoint as="offset" />
          </mxGeometry>
        </mxCell>
        <mxCell id="I-3xDNqU13IutiKupr62-46" value="" style="endArrow=classic;html=1;rounded=0;fontSize=12;startSize=8;endSize=8;curved=1;entryX=0.5;entryY=0;entryDx=0;entryDy=0;strokeWidth=2;exitX=1;exitY=1;exitDx=0;exitDy=0;" parent="gt3aoFQ5WGDo4pMsPphc-1" source="I-3xDNqU13IutiKupr62-1" target="I-3xDNqU13IutiKupr62-2" edge="1">
          <mxGeometry width="50" height="50" relative="1" as="geometry">
            <mxPoint x="-555.5" y="-457.9999999999999" as="sourcePoint" />
            <mxPoint x="-668.5" y="-381.9999999999999" as="targetPoint" />
          </mxGeometry>
        </mxCell>
        <mxCell id="I-3xDNqU13IutiKupr62-47" value="issuer" style="edgeLabel;html=1;align=center;verticalAlign=middle;resizable=0;points=[];fontSize=16;" parent="I-3xDNqU13IutiKupr62-46" vertex="1" connectable="0">
          <mxGeometry x="-0.016" relative="1" as="geometry">
            <mxPoint as="offset" />
          </mxGeometry>
        </mxCell>
        <mxCell id="I-3xDNqU13IutiKupr62-41" value="" style="endArrow=classic;html=1;rounded=0;fontSize=12;startSize=8;endSize=8;curved=1;entryX=0;entryY=0.5;entryDx=0;entryDy=0;strokeWidth=2;exitX=1;exitY=0.5;exitDx=0;exitDy=0;" parent="gt3aoFQ5WGDo4pMsPphc-1" source="I-3xDNqU13IutiKupr62-1" target="I-3xDNqU13IutiKupr62-3" edge="1">
          <mxGeometry width="50" height="50" relative="1" as="geometry">
            <mxPoint x="-498.5" y="-469.61" as="sourcePoint" />
            <mxPoint x="-798.5" y="-519.61" as="targetPoint" />
          </mxGeometry>
        </mxCell>
        <mxCell id="I-3xDNqU13IutiKupr62-42" value="&amp;nbsp;credentialSubject&amp;nbsp;" style="edgeLabel;html=1;align=center;verticalAlign=middle;resizable=0;points=[];fontSize=16;" parent="I-3xDNqU13IutiKupr62-41" vertex="1" connectable="0">
          <mxGeometry x="-0.016" relative="1" as="geometry">
            <mxPoint as="offset" />
          </mxGeometry>
        </mxCell>
        <mxCell id="I-3xDNqU13IutiKupr62-44" value="" style="endArrow=classic;html=1;rounded=0;fontSize=12;startSize=8;endSize=8;curved=1;entryX=0.5;entryY=0;entryDx=0;entryDy=0;strokeWidth=2;exitX=0;exitY=1;exitDx=0;exitDy=0;" parent="gt3aoFQ5WGDo4pMsPphc-1" source="I-3xDNqU13IutiKupr62-3" target="I-3xDNqU13IutiKupr62-2" edge="1">
          <mxGeometry width="50" height="50" relative="1" as="geometry">
            <mxPoint x="-258.5" y="-359.61" as="sourcePoint" />
            <mxPoint x="-66.5" y="-359.61" as="targetPoint" />
          </mxGeometry>
        </mxCell>
        <mxCell id="I-3xDNqU13IutiKupr62-45" value="alumniOf" style="edgeLabel;html=1;align=center;verticalAlign=middle;resizable=0;points=[];fontSize=16;" parent="I-3xDNqU13IutiKupr62-44" vertex="1" connectable="0">
          <mxGeometry x="-0.016" relative="1" as="geometry">
            <mxPoint as="offset" />
          </mxGeometry>
        </mxCell>
      </root>
    </mxGraphModel>
  </diagram>
</mxfile>
